<svg xmlns="http://www.w3.org/2000/svg" width="16" height="16" viewBox="0 0 16 16">
    <defs>
        <style>
            .cls-1{fill:none}.cls-2{opacity:.6;clip-path:url(#clip-path)}.cls-3{fill:#646363}
        </style>
        <clipPath id="clip-path">
            <path d="M0 0h16v16H0z" class="cls-1"/>
        </clipPath>
    </defs>
    <g id="Composant_2" class="cls-2" data-name="Composant 2">
        <path id="Union_2" d="M4.7 15.953a5.88 5.88 0 0 1-1.943-.371 3.976 3.976 0 0 1-1.416-.924 3.886 3.886 0 0 1-.923-1.417 5.883 5.883 0 0 1-.37-1.941C.01 10.444 0 10.171 0 8s.01-2.446.048-3.3a5.854 5.854 0 0 1 .371-1.941 3.964 3.964 0 0 1 .923-1.417A3.914 3.914 0 0 1 2.759.419 5.851 5.851 0 0 1 4.7.048C5.552.01 5.826 0 8 0s2.444.01 3.3.044a5.9 5.9 0 0 1 1.943.372 3.976 3.976 0 0 1 1.416.924 3.905 3.905 0 0 1 .924 1.416 5.92 5.92 0 0 1 .37 1.944c.038.854.047 1.124.047 3.3s-.009 2.445-.048 3.3a5.875 5.875 0 0 1-.371 1.943 3.979 3.979 0 0 1-.924 1.417 3.905 3.905 0 0 1-1.416.924 5.914 5.914 0 0 1-1.943.371c-.854.039-1.124.048-3.3.048s-2.442-.012-3.298-.05zM4.766 1.49a4.449 4.449 0 0 0-1.486.276 2.438 2.438 0 0 0-.921.6 2.471 2.471 0 0 0-.6.921 4.356 4.356 0 0 0-.276 1.486c-.039.845-.048 1.1-.048 3.233s.009 2.388.048 3.233a4.454 4.454 0 0 0 .276 1.486 2.435 2.435 0 0 0 .6.921 2.482 2.482 0 0 0 .921.6 4.356 4.356 0 0 0 1.486.276c.844.038 1.1.048 3.232.048s2.387-.01 3.231-.048a4.449 4.449 0 0 0 1.486-.276 2.442 2.442 0 0 0 .921-.6 2.478 2.478 0 0 0 .6-.921 4.361 4.361 0 0 0 .276-1.486c.039-.845.048-1.1.048-3.233s-.009-2.388-.048-3.233a4.449 4.449 0 0 0-.276-1.486 2.428 2.428 0 0 0-.6-.921 2.475 2.475 0 0 0-.921-.6 4.356 4.356 0 0 0-1.486-.276c-.844-.039-1.1-.048-3.231-.048s-2.388.006-3.232.048zM3.951 8A4.046 4.046 0 1 1 8 12.049 4.047 4.047 0 0 1 3.951 8zM5.37 8A2.627 2.627 0 1 0 8 5.371 2.627 2.627 0 0 0 5.37 8zm6.147-3.523a.974.974 0 1 1 .689.286.973.973 0 0 1-.689-.287z" class="cls-3" data-name="Union 2"/>
    </g>
</svg>
