<svg xmlns="http://www.w3.org/2000/svg" width="240" height="360" viewBox="0 0 240 360">
    <defs>
        <style>
            .cls-1{fill:#badfd8}.cls-2{opacity:.4}.cls-3{fill:#143626}.cls-4{fill:#143727}.cls-5{fill:#0058a7}.cls-6{fill:#fff}.cls-7{fill:#d9000d}
        </style>
    </defs>
    <g id="Groupe_859" data-name="Groupe 859" transform="translate(-955 -8180)">
        <path id="LE_PETIT_OLIVIER-6" d="M0 0h240v360H0z" class="cls-1" data-name="LE PETIT OLIVIER-6" transform="translate(955 8180)"/>
        <g id="Groupe_585" class="cls-2" data-name="Groupe 585" transform="translate(1045 8460)">
            <g id="Groupe_580" class="cls-2" data-name="Groupe 580" transform="translate(6.223 .408)">
                <path id="Tracé_880" d="M72.682 81.784s-.125-1.522-6.3-4.423-2.3-9.239-2.3-9.239-.474 4.941 2.871 6.034c3.256 1.063 5.729 7.628 5.729 7.628z" class="cls-3" data-name="Tracé 880" transform="translate(-57.702 -52.352)"/>
                <path id="Tracé_881" d="M64.9 65.745s-1.116 1.512-.448 1.763a7.472 7.472 0 0 1 2.3 1.6c.364.465-3.74.5-1.814 1.569s1.548 1.763 1.359 2.03a1.834 1.834 0 0 1-2.894-.977c-.658-2.04-1.594-6.154-.964-7.008a8.258 8.258 0 0 0 .945-1.624s-.666 3.019-.207 3.966.677 2.285 1.419 2.1-3.111-3.506.304-3.419z" class="cls-3" data-name="Tracé 881" transform="translate(-58.441 -57.954)"/>
                <path id="Tracé_882" d="M63.49 69.367s-1.66 7.169 1.643 9.378 7.873 7.592 6.628 10.736a21.6 21.6 0 0 0-7.283-7.036C59.556 79.549 62 69.27 63.49 69.367z" class="cls-3" data-name="Tracé 882" transform="translate(-59.193 -50.965)"/>
                <path id="Tracé_883" d="M63.175 65.225s-.055-1.579.924-2.015c0 0-2.558.545-3.209-.924a4.634 4.634 0 0 0 2.285 2.939z" class="cls-3" data-name="Tracé 883" transform="translate(-59.927 -58.854)"/>
                <path id="Tracé_884" d="M61.252 63.845s-1.839-2.175 0-2.96 2.427.721 2.793 1.008c0 0-2.366-1.658-2.9-.393a2.743 2.743 0 0 0 .107 2.345z" class="cls-3" data-name="Tracé 884" transform="translate(-60.434 -60.663)"/>
            </g>
            <g id="Groupe_584" data-name="Groupe 584">
                <g id="Groupe_581" data-name="Groupe 581" transform="translate(31.288 14.677)">
                    <path id="Tracé_885" d="M72.394 71.215c0-3.311 1.751-3.8 2.622-3.8s2.617.493 2.617 3.8-1.751 3.808-2.617 3.808-2.622-.495-2.622-3.808zm2.622 2c.33 0 .59-.55.59-2s-.26-1.994-.59-1.994-.594.55-.594 1.994.26 1.998.594 1.998z" class="cls-3" data-name="Tracé 885" transform="translate(-72.174 -67.412)"/>
                    <path id="Tracé_886" d="M77.858 67.412c1.577 0 2.573 1 2.573 3.169v4.368h-2.023v-4.8c0-.537-.23-.926-.55-.926s-.548.389-.548.926v4.8h-2.027v-7.465h1.882v.433l.493-.493a.854.854 0 0 1 .2-.012z" class="cls-3" data-name="Tracé 886" transform="translate(-68.955 -67.412)"/>
                    <path id="Tracé_887" d="M80.249 72.6a.841.841 0 0 0 .81.767 2.943 2.943 0 0 0 .653-.057v1.634a4.048 4.048 0 0 1-.822.074c-1.161 0-2.767-.624-2.767-3.818 0-3.159 1.463-3.793 2.52-3.793a2.148 2.148 0 0 1 2.157 2.347 3.022 3.022 0 0 1-2.551 2.846zm-.1-1.649a1.328 1.328 0 0 0 .812-1.345c0-.376-.1-.609-.351-.609-.33 0-.474.609-.474 1.433-.001.223-.001.382.011.525z" class="cls-3" data-name="Tracé 887" transform="translate(-65.792 -67.412)"/>
                    <path id="Tracé_888" d="M75.912 81.141h-2.028l-1.594-7.465h1.767l.839 4.863.841-4.863h1.723z" class="cls-3" data-name="Tracé 888" transform="translate(-72.29 -60.433)"/>
                    <path id="Tracé_889" d="M74.933 77.447c0-3.315 1.751-3.806 2.617-3.806s2.619.49 2.619 3.806-1.753 3.8-2.619 3.8-2.617-.489-2.617-3.8zm2.617 2c.336 0 .6-.55.6-2s-.26-2-.6-2-.594.55-.594 2 .26 1.996.594 1.996z" class="cls-3" data-name="Tracé 889" transform="translate(-69.345 -60.471)"/>
                    <path id="Tracé_890" d="M77.888 83.093v-7.465h2.027v7.465zm.061-11.169h1.909v2.662h-1.909z" class="cls-3" data-name="Tracé 890" transform="translate(-66.053 -62.385)"/>
                    <path id="Tracé_891" d="M79.328 77.447c0-3.461 2.444-3.806 3.021-3.806a5.616 5.616 0 0 1 .867.055v1.638a2.22 2.22 0 0 0-.52-.044c-.537 0-1.345.507-1.345 2.156S82.159 79.6 82.7 79.6a2.694 2.694 0 0 0 .55-.044v1.634a5.881 5.881 0 0 1-.9.059c-.578.002-3.022-.349-3.022-3.802z" class="cls-3" data-name="Tracé 891" transform="translate(-64.449 -60.471)"/>
                    <path id="Tracé_892" d="M83.527 78.834a.844.844 0 0 0 .812.767 2.8 2.8 0 0 0 .649-.057v1.634a4.07 4.07 0 0 1-.827.072c-1.154 0-2.761-.619-2.761-3.82 0-3.154 1.461-3.789 2.518-3.789a2.151 2.151 0 0 1 2.156 2.343 3.019 3.019 0 0 1-2.547 2.85zm-.1-1.647a1.336 1.336 0 0 0 .81-1.347c0-.376-.1-.607-.347-.607-.336 0-.48.607-.48 1.431a4.687 4.687 0 0 0 .017.523z" class="cls-3" data-name="Tracé 892" transform="translate(-62.14 -60.471)"/>
                </g>
                <path id="Tracé_893" d="M63.807 62.155s1.19-1.746 5.036-1.609 4.548 2.378 4.548 2.378-3.569-1.958-4.2-1.537c0 0 .425.209.562 1.118 0 0-1.188-1.469-2.1-1.188a3.164 3.164 0 0 0-1.467 1.049l.277-1.19z" class="cls-3" data-name="Tracé 893" transform="translate(-50.454 -60.393)"/>
                <path id="Tracé_894" d="M70.968 67.907s1.116 5.222-2.152 8.266c-2.753 2.562-.442 6.791-.442 6.791s-.552-2.643 3-6.277c1.816-1.85-.406-8.78-.406-8.78z" class="cls-3" data-name="Tracé 894" transform="translate(-46.376 -52.183)"/>
                <path id="Tracé_895" d="M65.034 64.809a2.435 2.435 0 0 0-.577 1.586c0 .744 3.672 3.3 1.738 3.712-1 .216-1.668.438-1.812.943a7.226 7.226 0 0 1 2.634-.285 14.93 14.93 0 0 0 2.882.07s-2.323-.44-2.323-1.307 1.71-2.45 1.93-3.07a3.459 3.459 0 0 0 .173-1.241s-.672.4-.744.691-1.22.152-2.317.218-1.575.359-1.584-.013c-.004-.213 0-1.304 0-1.304z" class="cls-3" data-name="Tracé 895" transform="translate(-49.812 -55.635)"/>
                <path id="Tracé_896" d="M73.185 65.07s.1 5.49-1.626 7.6c0 0 .463-5.362-.027-5.543s-.687 4.277-3.226 4.059 2.237-1.679 2.52-7.742c-.001-.004.667 3.256 2.359 1.626z" class="cls-3" data-name="Tracé 896" transform="translate(-46.267 -57.16)"/>
                <path id="Tracé_897" d="M73.093 71.155A9.2 9.2 0 0 1 71.3 76.6c-2.038 3.1-4.689 6.323-3.173 10.581a14.006 14.006 0 0 1 3.854-7.581c2.072-1.9 1.112-8.445 1.112-8.445z" class="cls-3" data-name="Tracé 897" transform="translate(-46.142 -48.565)"/>
                <path id="Tracé_898" d="M63.147 62.712a1.341 1.341 0 0 0 1.381.072c.871-.362 1.812-.072 1.3 2.034 0 0-.072-.507-1.017-.579s-1.664-1.527-1.664-1.527z" class="cls-3" data-name="Tracé 898" transform="translate(-51.189 -58.039)"/>
                <path id="Tracé_899" d="M67.4 63.743s.364-1.089 1.307-1.163 1.159.438 2.106.362a4.72 4.72 0 0 0-1.6 1.235c-.502.723-1.813-.434-1.813-.434z" class="cls-3" data-name="Tracé 899" transform="translate(-46.446 -58.126)"/>
                <path id="Tracé_900" d="M72.96 61.269s0 3.268-3.211 2.884a7.187 7.187 0 0 1 .6 2.4s.372-1.114.763-1.336c.658-.369 2.988-2.917 1.848-3.948z" class="cls-3" data-name="Tracé 900" transform="translate(-43.834 -59.579)"/>
                <path id="Tracé_901" d="M68.813 62.117s3.63-2.958 5.364-.947a3.206 3.206 0 0 0-2.628-.17 24.889 24.889 0 0 0-2.736 1.117z" class="cls-3" data-name="Tracé 901" transform="translate(-44.876 -60.47)"/>
                <g id="Groupe_582" data-name="Groupe 582" transform="translate(0 31.895)">
                    <path id="Tracé_902" d="M64.4 89.376a6.91 6.91 0 1 1 6.907-6.909 6.92 6.92 0 0 1-6.907 6.909zm0-13.184a6.275 6.275 0 1 0 6.271 6.275 6.283 6.283 0 0 0-6.271-6.275z" class="cls-3" data-name="Tracé 902" transform="translate(-57.491 -75.556)"/>
                </g>
                <g id="Groupe_583" data-name="Groupe 583" transform="translate(4.605 34.398)">
                    <path id="Tracé_903" d="M60.582 83.484V79.96h-.254a.659.659 0 1 1 0-1.317h.254V77.5a.767.767 0 0 1 1.535 0v1.142h1.205a.659.659 0 1 1 0 1.317h-1.205v3.285a.73.73 0 0 0 .822.835 3.762 3.762 0 0 0 .383-.038.648.648 0 0 1 .645.636.659.659 0 0 1-.4.594 3.071 3.071 0 0 1-1.053.178 1.717 1.717 0 0 1-1.932-1.965z" class="cls-3" data-name="Tracé 903" transform="translate(-59.669 -76.74)"/>
                </g>
                <path id="Tracé_904" d="M104.147 64.409H81.172v.66h22.975a5.9 5.9 0 0 1 5.892 5.892v19.165a5.9 5.9 0 0 1-5.892 5.892h-40.38a5.419 5.419 0 0 1-.178.66h40.558a6.56 6.56 0 0 0 6.55-6.552V70.961a6.56 6.56 0 0 0-6.55-6.552z" class="cls-3" data-name="Tracé 904" transform="translate(-50.697 -56.081)"/>
                <path id="Tracé_905" d="M58.631 92.358a5.819 5.819 0 0 1-.446-2.233V70.961a5.9 5.9 0 0 1 5.892-5.892v-.66a6.559 6.559 0 0 0-6.552 6.552v19.165a6.459 6.459 0 0 0 .816 3.1 6.388 6.388 0 0 1 .29-.868z" class="cls-3" data-name="Tracé 905" transform="translate(-57.453 -56.081)"/>
            </g>
        </g>
        <g id="Groupe_632" data-name="Groupe 632" transform="translate(89.754 7983.848)">
            <g id="Groupe_627" data-name="Groupe 627" transform="translate(918.143 365.966)">
                <g id="Groupe_626" data-name="Groupe 626">
                    <path id="Tracé_979" d="M923.321 375.238h-3.015v2.392h2.455v1.183h-2.455v4.033h-1.463v-8.8h4.657z" class="cls-4" data-name="Tracé 979" transform="translate(-918.843 -371.205)"/>
                    <path id="Tracé_980" d="M934.207 382.836l-.713-2.315h-2.85l-.713 2.315h-1.514l2.888-8.816H933l2.811 8.816zm-2.087-7.354h-.013c-.178.649-.929 3.295-1.107 3.816h2.163c-.088-.19-.979-3.473-1.043-3.816z" class="cls-4" data-name="Tracé 980" transform="translate(-923.343 -371.194)"/>
                    <path id="Tracé_981" d="M948.232 382.846h-2.558v-8.8H948a3.787 3.787 0 0 1 2.316.433 1.948 1.948 0 0 1 .992 1.731 1.912 1.912 0 0 1-1.514 1.921 2.181 2.181 0 0 1 1.87 2.226c.002 1.743-1.206 2.489-3.432 2.489zm.827-7.506a2.407 2.407 0 0 0-.827-.1h-1.107v2.4h1.221c.534 0 .8-.038 1.081-.331a1.314 1.314 0 0 0 .344-.878 1.141 1.141 0 0 0-.713-1.091zm.165 3.587a2.634 2.634 0 0 0-.814-.076h-1.285v2.787h1.323c1.12 0 1.6-.637 1.6-1.425a1.286 1.286 0 0 0-.824-1.285z" class="cls-4" data-name="Tracé 981" transform="translate(-931.452 -371.205)"/>
                    <path id="Tracé_982" d="M965.813 382.846l-.763-1.362a9.708 9.708 0 0 0-1.5-2.175.745.745 0 0 0-.572-.267v3.8h-1.438v-8.8h2.685c1.972 0 2.862 1.145 2.862 2.519a2.251 2.251 0 0 1-2.188 2.417 6.672 6.672 0 0 1 1.361 1.756l1.3 2.112zm-2.036-7.621h-.8v2.787h.751a1.916 1.916 0 0 0 1.438-.369 1.482 1.482 0 0 0 .394-1.069c-.002-.89-.485-1.349-1.783-1.349z" class="cls-4" data-name="Tracé 982" transform="translate(-938.907 -371.205)"/>
                    <path id="Tracé_983" d="M976.73 382.846v-8.8h1.5v8.8z" class="cls-4" data-name="Tracé 983" transform="translate(-946.046 -371.205)"/>
                    <path id="Tracé_984" d="M992.023 384.209a1.761 1.761 0 0 1-.7.14 3.149 3.149 0 0 1-1.692-.636 5.761 5.761 0 0 0-1.82-.852c-2.455 0-3.689-1.946-3.689-4.542 0-2.876 1.476-4.517 3.664-4.517 2.4 0 3.69 1.806 3.69 4.542 0 1.959-.649 3.321-1.807 4.046a6.2 6.2 0 0 1 .967.522 2.066 2.066 0 0 0 1.208.369 3.276 3.276 0 0 0 .572-.051zm-4.249-9.275c-1.425 0-2.023 1.12-2.023 3.308 0 2.646.776 3.512 2.074 3.512s1.972-.891 1.972-3.321c.003-2.277-.497-3.499-2.023-3.499z" class="cls-4" data-name="Tracé 984" transform="translate(-949.52 -371.092)"/>
                    <path id="Tracé_985" d="M1005.474 383c-2.315 0-3.04-1.2-3.04-2.608v-6.349h1.476v5.917c0 1.348.483 1.794 1.565 1.794s1.591-.623 1.591-1.794v-5.917h1.463v6.336c-.001 1.615-1.121 2.621-3.055 2.621z" class="cls-4" data-name="Tracé 985" transform="translate(-958.126 -371.205)"/>
                    <path id="Tracé_986" d="M1019.09 380.331v-8.8h4.886l-.191 1.2h-3.206v2.4h2.685v1.209h-2.685v2.748h3.524v1.247zm1.259-9.16l-.432-.8 2.6-1.679.636 1.183z" class="cls-4" data-name="Tracé 986" transform="translate(-965.953 -368.69)"/>
                    <path id="Tracé_987" d="M1034.314 382.888a5.633 5.633 0 0 1-2.888-.789l.559-1.12a4.5 4.5 0 0 0 2.38.725c1.082 0 1.73-.522 1.73-1.4 0-.649-.406-1.056-1.31-1.31l-.942-.267a2.886 2.886 0 0 1-1.7-1.056 2.213 2.213 0 0 1-.369-1.285c0-1.552 1.221-2.608 2.99-2.608a4.9 4.9 0 0 1 2.786.84l-.661 1.031a3.788 3.788 0 0 0-2.074-.674c-.866 0-1.438.471-1.438 1.2 0 .547.305.827 1.171 1.081l1.043.305a2.6 2.6 0 0 1 2.163 2.506c-.005 1.459-1.189 2.821-3.44 2.821z" class="cls-4" data-name="Tracé 987" transform="translate(-971.75 -371.081)"/>
                    <path id="Tracé_988" d="M1053.913 382.846v-8.8h4.886l-.191 1.2h-3.208v2.4h2.684v1.209h-2.684v2.745h3.524v1.247z" class="cls-4" data-name="Tracé 988" transform="translate(-982.318 -371.205)"/>
                    <path id="Tracé_989" d="M1071.757 382.846l-1.972-4.135a26.052 26.052 0 0 1-1.12-2.608l-.039.038c.064.738.077 1.577.089 2.443l.051 4.262h-1.438v-8.8h1.654l2.137 4.3a16 16 0 0 1 .9 2.264l.038-.038c-.038-.445-.127-1.7-.127-2.506l-.025-4.021h1.387v8.8z" class="cls-4" data-name="Tracé 989" transform="translate(-988.622 -371.205)"/>
                    <path id="Tracé_990" d="M1094.943 375.238h-3.015v2.392h2.455v1.183h-2.455v4.033h-1.464v-8.8h4.657z" class="cls-4" data-name="Tracé 990" transform="translate(-999.495 -371.205)"/>
                    <path id="Tracé_991" d="M1106.523 382.846l-.763-1.362a9.712 9.712 0 0 0-1.5-2.175.745.745 0 0 0-.573-.267v3.8h-1.437v-8.8h2.685c1.972 0 2.862 1.145 2.862 2.519a2.251 2.251 0 0 1-2.188 2.417 6.667 6.667 0 0 1 1.361 1.756l1.3 2.112zm-2.035-7.621h-.8v2.787h.751a1.916 1.916 0 0 0 1.438-.369 1.482 1.482 0 0 0 .394-1.069c-.002-.89-.486-1.349-1.783-1.349z" class="cls-4" data-name="Tracé 991" transform="translate(-1005.032 -371.205)"/>
                    <path id="Tracé_992" d="M1121.262 382.836l-.713-2.315h-2.85l-.712 2.315h-1.514l2.888-8.816h1.692l2.812 8.816zm-2.087-7.354h-.013c-.178.649-.929 3.295-1.107 3.816h2.163c-.089-.19-.979-3.473-1.043-3.816z" class="cls-4" data-name="Tracé 992" transform="translate(-1011.247 -371.194)"/>
                    <path id="Tracé_993" d="M1137.155 382.846l-1.972-4.135a26.4 26.4 0 0 1-1.12-2.608l-.038.038c.064.738.076 1.577.089 2.443l.05 4.262h-1.437v-8.8h1.654l2.137 4.3a16.074 16.074 0 0 1 .9 2.264l.038-.038c-.038-.445-.127-1.7-.127-2.506l-.026-4.021h1.387v8.8z" class="cls-4" data-name="Tracé 993" transform="translate(-1019.356 -371.205)"/>
                    <path id="Tracé_994" d="M1152.335 382.84a3.46 3.46 0 0 1-2.787-1.272 4.825 4.825 0 0 1-1-3.143 5.563 5.563 0 0 1 .585-2.672 3.642 3.642 0 0 1 3.245-2.023 3.508 3.508 0 0 1 2.188.687l-.674.967a2.447 2.447 0 0 0-1.5-.5 1.966 1.966 0 0 0-1.756 1.056 4.649 4.649 0 0 0-.458 2.315 5.048 5.048 0 0 0 .344 2.188 2.05 2.05 0 0 0 1.959 1.247 2.333 2.333 0 0 0 1.578-.56l.686.929a3.807 3.807 0 0 1-2.41.781z" class="cls-4" data-name="Tracé 994" transform="translate(-1026.788 -371.058)"/>
                    <path id="Tracé_995" d="M1164.168 382.846v-8.8h4.886l-.191 1.2h-3.205v2.4h2.684v1.209h-2.684v2.745h3.524v1.247z" class="cls-4" data-name="Tracé 995" transform="translate(-1034.131 -371.205)"/>
                </g>
            </g>
            <g id="Groupe_629" data-name="Groupe 629" transform="translate(917.353 351.079)">
                <g id="Groupe_628" data-name="Groupe 628">
                    <path id="Tracé_996" d="M922.589 352.214h-2.169v7.2h-.92v-7.2h-2.146v-.8h5.295z" class="cls-4" data-name="Tracé 996" transform="translate(-917.353 -351.234)"/>
                    <path id="Tracé_997" d="M933.546 358.668a2.8 2.8 0 0 1-2.03.77 2.908 2.908 0 0 1-2.274-1.015 4.747 4.747 0 0 1-.957-3.172c0-2.543 1.213-4.105 3.184-4.105a2.885 2.885 0 0 1 2.519 1.306 5.113 5.113 0 0 1 .723 2.962 4 4 0 0 1-1.165 3.254zm-.292-5.657a1.883 1.883 0 0 0-1.785-1.1 1.91 1.91 0 0 0-1.714.933 4.63 4.63 0 0 0-.408 2.2 6.155 6.155 0 0 0 .513 2.787 2.085 2.085 0 0 0 1.7.863 1.781 1.781 0 0 0 1.493-.689 3.669 3.669 0 0 0 .583-2.461 6.063 6.063 0 0 0-.381-2.533z" class="cls-4" data-name="Tracé 997" transform="translate(-922.491 -351.11)"/>
                    <path id="Tracé_998" d="M948.585 358.932a3.031 3.031 0 0 1-2.1.618 2.35 2.35 0 0 1-2.368-1.154 2.722 2.722 0 0 1-.233-1.248v-5.738h.945v5.39a3.674 3.674 0 0 0 .14 1.154 1.539 1.539 0 0 0 1.563.782 1.722 1.722 0 0 0 1.411-.5 1.872 1.872 0 0 0 .3-1.248v-5.575h.945v5.687c.003.969-.125 1.423-.603 1.832z" class="cls-4" data-name="Tracé 998" transform="translate(-929.821 -351.234)"/>
                    <path id="Tracé_999" d="M961.512 358.917a3.094 3.094 0 0 1-1.8.49 4.69 4.69 0 0 1-2.566-.723l.42-.746a3.494 3.494 0 0 0 2.146.688 1.859 1.859 0 0 0 1.272-.35 1.369 1.369 0 0 0 .571-1.143c0-.712-.466-1.2-1.434-1.493l-.805-.245a3.037 3.037 0 0 1-1.423-.711 1.863 1.863 0 0 1-.5-1.307 2.329 2.329 0 0 1 2.589-2.3 4.206 4.206 0 0 1 2.414.77l-.42.688a3.231 3.231 0 0 0-1.948-.676c-1 0-1.6.5-1.6 1.318 0 .642.385 1 1.329 1.306l.921.292a2.747 2.747 0 0 1 1.411.8 2.217 2.217 0 0 1 .525 1.411 2.3 2.3 0 0 1-1.102 1.931z" class="cls-4" data-name="Tracé 999" transform="translate(-936.055 -351.079)"/>
                    <path id="Tracé_1000" d="M979.836 359.41l-2.566-4.9a19.607 19.607 0 0 1-.91-1.925c.023.233.093 1.259.1 2.181l.047 4.642h-.992v-8h1.108l2.659 5.108a18.352 18.352 0 0 1 .746 1.68c0-.024-.093-1.295-.1-2.438l-.035-4.35h.945v8z" class="cls-4" data-name="Tracé 1000" transform="translate(-944.688 -351.234)"/>
                    <path id="Tracé_1001" d="M994.4 358.668a2.8 2.8 0 0 1-2.03.77 2.91 2.91 0 0 1-2.274-1.015 4.75 4.75 0 0 1-.956-3.172c0-2.543 1.213-4.105 3.184-4.105a2.883 2.883 0 0 1 2.518 1.306 5.109 5.109 0 0 1 .724 2.962 4 4 0 0 1-1.166 3.254zm-.292-5.657a1.883 1.883 0 0 0-1.784-1.1 1.911 1.911 0 0 0-1.715.933 4.644 4.644 0 0 0-.408 2.2 6.163 6.163 0 0 0 .513 2.787 2.086 2.086 0 0 0 1.7.863 1.782 1.782 0 0 0 1.493-.689 3.669 3.669 0 0 0 .583-2.461 6.065 6.065 0 0 0-.383-2.533z" class="cls-4" data-name="Tracé 1001" transform="translate(-951.088 -351.11)"/>
                    <path id="Tracé_1002" d="M1008.108 358.917a3.1 3.1 0 0 1-1.8.49 4.691 4.691 0 0 1-2.566-.723l.42-.746a3.493 3.493 0 0 0 2.146.688 1.858 1.858 0 0 0 1.271-.35 1.368 1.368 0 0 0 .571-1.143c0-.712-.466-1.2-1.434-1.493l-.8-.245a3.042 3.042 0 0 1-1.423-.711 1.864 1.864 0 0 1-.5-1.307 2.329 2.329 0 0 1 2.589-2.3 4.2 4.2 0 0 1 2.414.77l-.42.688a3.23 3.23 0 0 0-1.948-.676c-1 0-1.6.5-1.6 1.318 0 .642.385 1 1.329 1.306l.921.292a2.747 2.747 0 0 1 1.411.8 2.22 2.22 0 0 1 .525 1.411 2.3 2.3 0 0 1-1.106 1.931z" class="cls-4" data-name="Tracé 1002" transform="translate(-957.952 -351.079)"/>
                    <path id="Tracé_1003" d="M1026.385 355.6a2.65 2.65 0 0 1-1.936.63h-1.4v3.184h-.933v-8h2.216a2.936 2.936 0 0 1 1.75.373 2.191 2.191 0 0 1 1.026 1.912 2.368 2.368 0 0 1-.723 1.901zm-.805-2.986a2.169 2.169 0 0 0-1.516-.4h-1.015v3.231h1.341a1.43 1.43 0 0 0 1.248-.431 1.608 1.608 0 0 0 .408-1.132 1.535 1.535 0 0 0-.466-1.272z" class="cls-4" data-name="Tracé 1003" transform="translate(-966.585 -351.234)"/>
                    <path id="Tracé_1004" d="M1038.122 359.41a18.37 18.37 0 0 0-2.041-3.1 1.033 1.033 0 0 0-.91-.513v3.616h-.933v-8h1.866a2.958 2.958 0 0 1 2.017.513 2.1 2.1 0 0 1 .794 1.679 2.039 2.039 0 0 1-2.123 2.193h-.117a4.944 4.944 0 0 1 .8.9c.3.408 1.54 2.263 1.843 2.718zm-.991-7.033a2.6 2.6 0 0 0-1-.163h-.957v2.986h.886a2 2 0 0 0 1.446-.408 1.608 1.608 0 0 0 .409-1.2 1.332 1.332 0 0 0-.785-1.215z" class="cls-4" data-name="Tracé 1004" transform="translate(-972.282 -351.234)"/>
                    <path id="Tracé_1005" d="M1051.137 358.668a2.8 2.8 0 0 1-2.029.77 2.909 2.909 0 0 1-2.274-1.015 4.746 4.746 0 0 1-.956-3.172c0-2.543 1.213-4.105 3.184-4.105a2.885 2.885 0 0 1 2.519 1.306 5.112 5.112 0 0 1 .723 2.962 4 4 0 0 1-1.167 3.254zm-.292-5.657a1.883 1.883 0 0 0-1.784-1.1 1.912 1.912 0 0 0-1.715.933 4.644 4.644 0 0 0-.408 2.2 6.154 6.154 0 0 0 .513 2.787 2.085 2.085 0 0 0 1.7.863 1.781 1.781 0 0 0 1.493-.689 3.669 3.669 0 0 0 .583-2.461 6.064 6.064 0 0 0-.382-2.533z" class="cls-4" data-name="Tracé 1005" transform="translate(-977.751 -351.11)"/>
                    <path id="Tracé_1006" d="M1066.191 358.407a2.943 2.943 0 0 1-2.519 1h-2.088v-8h1.6a3.679 3.679 0 0 1 2.565.618 3.949 3.949 0 0 1 1.353 3.394 4.394 4.394 0 0 1-.911 2.988zm-.816-5.482a2.091 2.091 0 0 0-1.877-.735h-.956v6.426h.956a2.066 2.066 0 0 0 2.029-.84 4.45 4.45 0 0 0 .536-2.239 3.757 3.757 0 0 0-.689-2.612z" class="cls-4" data-name="Tracé 1006" transform="translate(-985.133 -351.234)"/>
                    <path id="Tracé_1007" d="M1080.167 358.932a3.032 3.032 0 0 1-2.1.618 2.351 2.351 0 0 1-2.368-1.154 2.728 2.728 0 0 1-.233-1.248v-5.738h.945v5.39a3.659 3.659 0 0 0 .14 1.154 1.539 1.539 0 0 0 1.563.782 1.723 1.723 0 0 0 1.411-.5 1.871 1.871 0 0 0 .3-1.248v-5.575h.946v5.687c.003.969-.126 1.423-.604 1.832z" class="cls-4" data-name="Tracé 1007" transform="translate(-991.657 -351.234)"/>
                    <path id="Tracé_1008" d="M1089.612 359.41v-8h.933v8z" class="cls-4" data-name="Tracé 1008" transform="translate(-998.304 -351.234)"/>
                    <path id="Tracé_1009" d="M1099.315 352.214h-2.169v7.2h-.921v-7.2h-2.146v-.8h5.295z" class="cls-4" data-name="Tracé 1009" transform="translate(-1000.403 -351.234)"/>
                    <path id="Tracé_1010" d="M1109.154 358.917a3.091 3.091 0 0 1-1.8.49 4.69 4.69 0 0 1-2.566-.723l.42-.746a3.493 3.493 0 0 0 2.146.688 1.858 1.858 0 0 0 1.271-.35 1.368 1.368 0 0 0 .571-1.143c0-.712-.466-1.2-1.434-1.493l-.8-.245a3.042 3.042 0 0 1-1.423-.711 1.864 1.864 0 0 1-.5-1.307 2.329 2.329 0 0 1 2.589-2.3 4.2 4.2 0 0 1 2.414.77l-.42.688a3.231 3.231 0 0 0-1.948-.676c-1 0-1.6.5-1.6 1.318 0 .642.384 1 1.329 1.306l.921.292a2.746 2.746 0 0 1 1.411.8 2.219 2.219 0 0 1 .525 1.411 2.3 2.3 0 0 1-1.106 1.931z" class="cls-4" data-name="Tracé 1010" transform="translate(-1005.438 -351.079)"/>
                    <path id="Tracé_1011" d="M1126.2 358.917a3.093 3.093 0 0 1-1.8.49 4.69 4.69 0 0 1-2.566-.723l.42-.746a3.493 3.493 0 0 0 2.146.688 1.859 1.859 0 0 0 1.271-.35 1.368 1.368 0 0 0 .571-1.143c0-.712-.466-1.2-1.434-1.493l-.8-.245a3.039 3.039 0 0 1-1.423-.711 1.864 1.864 0 0 1-.5-1.307 2.329 2.329 0 0 1 2.589-2.3 4.206 4.206 0 0 1 2.414.77l-.42.688a3.231 3.231 0 0 0-1.948-.676c-1 0-1.6.5-1.6 1.318 0 .642.384 1 1.329 1.306l.921.292a2.747 2.747 0 0 1 1.411.8 2.22 2.22 0 0 1 .525 1.411 2.3 2.3 0 0 1-1.106 1.931z" class="cls-4" data-name="Tracé 1011" transform="translate(-1013.45 -351.079)"/>
                    <path id="Tracé_1012" d="M1140.126 358.668a2.8 2.8 0 0 1-2.029.77 2.91 2.91 0 0 1-2.274-1.015 4.746 4.746 0 0 1-.956-3.172c0-2.543 1.213-4.105 3.184-4.105a2.885 2.885 0 0 1 2.519 1.306 5.112 5.112 0 0 1 .723 2.962 4 4 0 0 1-1.167 3.254zm-.292-5.657a1.883 1.883 0 0 0-1.784-1.1 1.911 1.911 0 0 0-1.715.933 4.638 4.638 0 0 0-.408 2.2 6.154 6.154 0 0 0 .513 2.787 2.085 2.085 0 0 0 1.7.863 1.781 1.781 0 0 0 1.493-.689 3.669 3.669 0 0 0 .583-2.461 6.062 6.062 0 0 0-.382-2.533z" class="cls-4" data-name="Tracé 1012" transform="translate(-1019.571 -351.11)"/>
                    <path id="Tracé_1013" d="M1154.89 359.41l-2.566-4.9a19.6 19.6 0 0 1-.91-1.925c.023.233.093 1.259.1 2.181l.047 4.642h-.992v-8h1.108l2.659 5.108c.4.759.711 1.6.746 1.68 0-.024-.093-1.295-.1-2.438l-.035-4.35h.945v8z" class="cls-4" data-name="Tracé 1013" transform="translate(-1026.953 -351.234)"/>
                    <path id="Tracé_1014" d="M1168.548 352.214h-2.169v7.2h-.922v-7.2h-2.146v-.8h5.295z" class="cls-4" data-name="Tracé 1014" transform="translate(-1032.939 -351.234)"/>
                </g>
            </g>
            <g id="Groupe_631" data-name="Groupe 631" transform="translate(917.941 386.53)">
                <g id="Groupe_630" data-name="Groupe 630">
                    <path id="Rectangle_474" d="M0 0h45.1v4.622H0z" class="cls-5" data-name="Rectangle 474"/>
                    <path id="Rectangle_475" d="M0 0h45.1v4.622H0z" class="cls-6" data-name="Rectangle 475" transform="translate(45.1)"/>
                    <path id="Rectangle_476" d="M0 0h45.105v4.622H0z" class="cls-7" data-name="Rectangle 476" transform="translate(90.2)"/>
                </g>
            </g>
        </g>
    </g>
</svg>
