<svg xmlns="http://www.w3.org/2000/svg" width="70.269" height="54.414" viewBox="0 0 70.269 54.414">
    <defs>
        <style>
            .cls-1{fill:none}.cls-2{clip-path:url(#clip-path)}.cls-3{fill:#6d9b8d}
        </style>
        <clipPath id="clip-path">
            <path d="M0 0h70.269v54.414H0z" class="cls-1"/>
        </clipPath>
    </defs>
    <g id="Composant_24" class="cls-2" data-name="Composant 24">
        <path id="Tracé_874" d="M653.262 240.213h-19.487c2.125-1.071 3.466-2.368 3.965-3.864a4.73 4.73 0 0 0-.445-3.79c-1.28-2.39-4.818-3.759-9.848-1.426-3.491 1.621-5.744 6.065-6.665 8.219-.92-2.154-3.173-6.6-6.664-8.219-5.025-2.333-8.566-.965-9.847 1.426a4.731 4.731 0 0 0-.446 3.79c.5 1.5 1.84 2.793 3.966 3.864H588.3a2.659 2.659 0 0 0-2.656 2.655v12.2a1.713 1.713 0 0 0 1.711 1.711h1.425v24.128a3.439 3.439 0 0 0 3.435 3.435h57.127a3.439 3.439 0 0 0 3.434-3.435v-24.129h1.426a1.713 1.713 0 0 0 1.711-1.711v-12.2a2.658 2.658 0 0 0-2.651-2.654zm-43.679-.964c-1.675-.974-2.737-2.128-2.992-3.25a1.965 1.965 0 0 1 .286-1.6c.98-1.44 3.389-1.386 5.994.131 2.259 1.314 3.845 4.144 4.446 5.356-1.517.246-5.436.701-7.734-.637zm22.4 0c-2.3 1.34-6.22.883-7.736.637.6-1.212 2.185-4.039 4.448-5.356 2.606-1.517 5.016-1.57 5.993-.132a1.97 1.97 0 0 1 .288 1.6c-.256 1.123-1.319 2.277-2.994 3.251zm-16.623 2.391c.735 0 1.437-.028 2.082-.067a16.774 16.774 0 0 0-5.828 6.937 7.708 7.708 0 0 0-4.448-1.17 15.1 15.1 0 0 0-3.212.374c1.192-1.651 4.387-4.914 11.405-6.074zm.451 2.571a10 10 0 0 1 4.958-2.989h.014l.03.005a9.876 9.876 0 0 1 4.943 2.974v11.58h-9.946zm8.314-2.638c.639.039 1.335.065 2.062.067 7 1.159 10.213 4.42 11.418 6.073-4.329-.945-6.675.124-7.652.8a16.774 16.774 0 0 0-5.829-6.94zm3.745-9.533c3.836-1.783 7.271-1.384 8.545.992a3.715 3.715 0 0 1 .378 3 5.436 5.436 0 0 1-2.45 2.725 5.146 5.146 0 0 0 1.608-2.537 2.972 2.972 0 0 0-.436-2.384c-1.076-1.582-3.754-2.248-7.325-.171-3.2 1.86-5.055 6.218-5.132 6.4a.471.471 0 0 0-.026.144h-1.521c.716-1.762 2.936-6.58 6.358-8.169zm-23.1 3.992a3.719 3.719 0 0 1 .378-3 4.344 4.344 0 0 1 4.085-2.1 10.787 10.787 0 0 1 4.46 1.107c3.417 1.587 5.64 6.406 6.358 8.173h-1.521a.5.5 0 0 0-.026-.144c-.077-.185-1.937-4.543-5.132-6.4-3.569-2.076-6.25-1.41-7.324.17a2.97 2.97 0 0 0-.435 2.384 5.15 5.15 0 0 0 1.608 2.536 5.44 5.44 0 0 1-2.448-2.726zm-17.414 19.746a.713.713 0 0 1-.711-.711v-12.2a1.658 1.658 0 0 1 1.656-1.655h22.357c.375.079.758.145 1.144.2-7.238 2.19-9.262 6.636-9.37 6.884a.5.5 0 0 0 .594.68c6.113-1.723 8.365.634 8.383.655a.5.5 0 0 0 .375.169.416.416 0 0 0 .071 0 .5.5 0 0 0 .382-.283 19.927 19.927 0 0 1 2.57-4.17v10.435h-27.448zm4.86 27.563a2.437 2.437 0 0 1-2.435-2.435v-24.128h25.483v26.563zm24.048 0v-26.563h9.036v26.563zm35.513-2.435a2.437 2.437 0 0 1-2.434 2.435H626.3v-26.563h25.48zm3.137-25.839a.712.712 0 0 1-.711.711h-27.448v-10.443a20.066 20.066 0 0 1 2.57 4.178.5.5 0 0 0 .379.281.63.63 0 0 0 .074 0 .5.5 0 0 0 .372-.164c.022-.024 2.269-2.383 8.386-.658a.5.5 0 0 0 .595-.68c-.108-.248-2.133-4.694-9.371-6.884a17.61 17.61 0 0 0 1.144-.2h22.358a1.657 1.657 0 0 1 1.655 1.655z" class="cls-3" data-name="Tracé 874" transform="translate(-585.648 -229.927)"/>
    </g>
</svg>
