<svg xmlns="http://www.w3.org/2000/svg" width="85.61" height="52.048" viewBox="0 0 85.61 52.048">
    <defs>
        <style>
            .cls-1{fill:none}.cls-2{clip-path:url(#clip-path)}.cls-3{fill:#6d9b8d}
        </style>
        <clipPath id="clip-path">
            <path d="M0 0h85.61v52.048H0z" class="cls-1"/>
        </clipPath>
    </defs>
    <g id="Composant_22" class="cls-2" data-name="Composant 22">
        <path id="Tracé_861" d="M378.509 238.353h-12.247v-.716a4.946 4.946 0 0 0-4.94-4.941h-48.339a4.947 4.947 0 0 0-4.941 4.941V276.3a3.692 3.692 0 0 0 3.689 3.688h7.4a9.4 9.4 0 0 0 16.35 0h35.255a9.4 9.4 0 0 0 16.35 0h2.759a3.8 3.8 0 0 0 3.749-3.258h.055V253.5a15.16 15.16 0 0 0-15.14-15.147zm0 1a14.158 14.158 0 0 1 14.143 14.147v6.493h-3.8a.5.5 0 0 0 0 1h3.8v1.664h-3.8a.5.5 0 0 0 0 1h3.8v1.663h-3.8a.5.5 0 0 0 0 1h3.8v9.41h-4.339c.005-.135.02-.266.02-.4a9.419 9.419 0 1 0-18.838 0c0 .136.014.267.02.4h-3.253v-36.377zm-65.526-5.653h48.339a3.945 3.945 0 0 1 3.94 3.941v38.136H336.7c.007-.149.023-.3.023-.449a9.419 9.419 0 1 0-18.838 0c0 .152.015.3.022.449h-8.87v-38.14a3.946 3.946 0 0 1 3.946-3.937zm-1.252 45.288a2.688 2.688 0 0 1-2.64-2.211h8.922a9.354 9.354 0 0 0 .617 2.211zm15.578 4.76a8.419 8.419 0 1 1 8.419-8.42 8.429 8.429 0 0 1-8.419 8.416zm8.679-4.76a9.357 9.357 0 0 0 .617-2.211h28.657v2.211zm30.274 0v-2.258h3.349a9.34 9.34 0 0 0 .624 2.258zm12.652 4.76a8.419 8.419 0 1 1 8.419-8.42 8.428 8.428 0 0 1-8.419 8.416zm10.934-4.76h-2.255a9.339 9.339 0 0 0 .624-2.258h4.38a2.808 2.808 0 0 1-2.749 2.254z" class="cls-3" data-name="Tracé 861" transform="translate(-308.042 -232.696)"/>
        <path id="Tracé_862" d="M378.914 269.389a5.936 5.936 0 1 0 5.936 5.935 5.942 5.942 0 0 0-5.936-5.935zm0 10.871a4.936 4.936 0 1 1 4.936-4.936 4.941 4.941 0 0 1-4.936 4.936z" class="cls-3" data-name="Tracé 862" transform="translate(-308.042 -232.696)"/>
        <path id="Tracé_863" d="M327.309 269.389a5.936 5.936 0 1 0 5.936 5.935 5.942 5.942 0 0 0-5.936-5.935zm0 10.871a4.936 4.936 0 1 1 4.936-4.936 4.941 4.941 0 0 1-4.936 4.936z" class="cls-3" data-name="Tracé 863" transform="translate(-308.042 -232.696)"/>
        <path id="Tracé_864" d="M371.787 255.94l15.485.064a2.033 2.033 0 0 0 2.032-2.031v-1.041a10.245 10.245 0 0 0-10.23-10.234l-7.285-.064a2.033 2.033 0 0 0-2.031 2.031v9.245a2.033 2.033 0 0 0 2.029 2.03zm-1.029-11.275a1.032 1.032 0 0 1 1.027-1.031l7.285.064a9.244 9.244 0 0 1 9.234 9.234v1.041a1.032 1.032 0 0 1-1.03 1.031l-15.483-.064a1.032 1.032 0 0 1-1.031-1.03z" class="cls-3" data-name="Tracé 864" transform="translate(-308.042 -232.696)"/>
    </g>
</svg>
