<svg xmlns="http://www.w3.org/2000/svg" width="72.89" height="56.493" viewBox="0 0 72.89 56.493">
    <defs>
        <style>
            .cls-1{fill:none}.cls-2{clip-path:url(#clip-path)}.cls-3{fill:#6d9b8d}
        </style>
        <clipPath id="clip-path">
            <path d="M0 0h72.89v56.493H0z" class="cls-1"/>
        </clipPath>
    </defs>
    <g id="Composant_18" class="cls-2" data-name="Composant 18">
        <path id="Tracé_865" d="M58.5 242.782a2.518 2.518 0 0 1 2.515-2.516h45.664v-1H61.013a3.519 3.519 0 0 0-3.515 3.516v38.446a3.519 3.519 0 0 0 3.515 3.516h65.86a3.519 3.519 0 0 0 3.515-3.516v-21.935l-71.89-.406zm68.375 40.962H61.013a2.518 2.518 0 0 1-2.515-2.516v-11.106h70.89v11.106a2.518 2.518 0 0 1-2.515 2.516zm2.515-23.456v8.834H58.5v-9.235z" class="cls-3" data-name="Tracé 865" transform="translate(-57.498 -228.251)"/>
        <path id="Tracé_866" d="M128.292 237.142h-2.713v-4.194a4.659 4.659 0 0 0-4.62-4.7h-.039a4.664 4.664 0 0 0-4.658 4.624v4.267h-2.679a2.1 2.1 0 0 0-2.1 2.1v12.584a2.1 2.1 0 0 0 2.1 2.1h14.709a2.1 2.1 0 0 0 2.1-2.1v-12.586a2.1 2.1 0 0 0-2.1-2.095zm-11.03-4.263a3.663 3.663 0 0 1 3.658-3.628h.031a3.663 3.663 0 0 1 3.628 3.693v4.2h-7.317zm12.126 18.942a1.1 1.1 0 0 1-1.1 1.1h-14.705a1.1 1.1 0 0 1-1.1-1.1v-12.584a1.1 1.1 0 0 1 1.1-1.1h14.709a1.1 1.1 0 0 1 1.1 1.1z" class="cls-3" data-name="Tracé 866" transform="translate(-57.498 -228.251)"/>
        <path id="Rectangle_435" d="M0 0h1v4.814H0z" class="cls-3" data-name="Rectangle 435" transform="translate(62.94 14.883)"/>
        <path id="Tracé_867" d="M67.415 246.041h6.14v-1h-6.14a4.325 4.325 0 1 0 0 8.65h6.14v-1h-6.14a3.325 3.325 0 1 1 0-6.65z" class="cls-3" data-name="Tracé 867" transform="translate(-57.498 -228.251)"/>
        <path id="Tracé_868" d="M85.141 247.454a2.415 2.415 0 0 0-2.412-2.413h-7.841v1h7.841a1.412 1.412 0 0 1 0 2.825H66.948v1h15.781a1.412 1.412 0 0 1 0 2.825h-7.841v1h7.841a2.4 2.4 0 0 0 1.453-4.325 2.4 2.4 0 0 0 .959-1.912z" class="cls-3" data-name="Tracé 868" transform="translate(-57.498 -228.251)"/>
    </g>
</svg>
