<svg xmlns="http://www.w3.org/2000/svg" width="63.492" height="70.173" viewBox="0 0 63.492 70.173">
    <defs>
        <style>
            .cls-1{fill:none}.cls-2{clip-path:url(#clip-path)}.cls-3{fill:#6d9b8d}
        </style>
        <clipPath id="clip-path">
            <path d="M0 0h63.492v70.173H0z" class="cls-1"/>
        </clipPath>
    </defs>
    <g id="Composant_25" class="cls-2" data-name="Composant 25">
        <path id="Tracé_870" d="M489.557 278.188L504.53 253.8h-9.73l4-18.081-14.974 24.391h9.731zm-3.947-19.082l10.925-17.8-2.981 13.494h9.189l-10.925 17.8 2.982-13.487z" class="cls-3" data-name="Tracé 870" transform="translate(-462.431 -219.524)"/>
        <path id="Tracé_871" d="M516.669 280.33a31.675 31.675 0 0 0 .29-44.454l1.665-1.666a.5.5 0 0 0-.707-.707l-1.665 1.666a31.63 31.63 0 0 0-21.575-8.951v-2.451h4.047v-4.243h-9.094v4.243h4.047v2.451a31.628 31.628 0 0 0-21.575 8.951l-1.665-1.666a.5.5 0 1 0-.708.707l1.666 1.666a31.676 31.676 0 0 0 .289 44.454.448.448 0 0 0 .045.068.435.435 0 0 0 .069.046 31.689 31.689 0 0 0 44.758 0 .43.43 0 0 0 .068-.046.448.448 0 0 0 .045-.068zm-26.039-59.806h7.094v2.243h-7.094zm-16.367 18.22a.5.5 0 0 0 .707 0 .5.5 0 0 0 0-.707l-2.162-2.161a30.635 30.635 0 0 1 20.869-8.658v3.071a.5.5 0 0 0 1 0v-3.071a30.632 30.632 0 0 1 20.868 8.658l-2.161 2.161a.5.5 0 1 0 .707.707l2.161-2.161a30.626 30.626 0 0 1 8.658 20.868h-3.07a.5.5 0 0 0 0 1h3.07a30.63 30.63 0 0 1-8.658 20.869l-2.161-2.162a.5.5 0 0 0-.707.707l2.161 2.162a30.632 30.632 0 0 1-20.868 8.657v-3.07a.5.5 0 0 0-1 0v3.07a30.634 30.634 0 0 1-20.869-8.657l2.162-2.162a.5.5 0 0 0-.707-.707l-2.163 2.162a30.635 30.635 0 0 1-8.658-20.869h3.072a.5.5 0 0 0 0-1h-3.072a30.635 30.635 0 0 1 8.658-20.868z" class="cls-3" data-name="Tracé 871" transform="translate(-462.431 -219.524)"/>
        <path id="Tracé_872" d="M524.856 233.7l-6.429-6.431-3 3 6.429 6.43zm-6.429-5.016l5.015 5.016-1.586 1.585-5.015-5.016z" class="cls-3" data-name="Tracé 872" transform="translate(-462.431 -219.524)"/>
        <path id="Tracé_873" d="M472.927 230.271l-3-3-6.427 6.429 3 3zm-3-1.585l1.585 1.585-5.016 5.016-1.586-1.585z" class="cls-3" data-name="Tracé 873" transform="translate(-462.431 -219.524)"/>
    </g>
</svg>
