<svg xmlns="http://www.w3.org/2000/svg" width="23" height="22.997" viewBox="0 0 23 22.997">
    <defs>
        <clipPath id="67rwf9ukya">
            <path fill="none" d="M0 0H23V22.997H0z"/>
        </clipPath>
    </defs>
    <g clip-path="url(#67rwf9ukya)">
        <path fill="#646363" d="M2329.038 7442zm-1.038-.013a12.221 12.221 0 0 1 3.369-8.5 11.571 11.571 0 0 1 2.526-2 7.5 7.5 0 1 1 11.211 0 11.52 11.52 0 0 1 2.525 2 12.213 12.213 0 0 1 3.369 8.5l-1.025.006a11.118 11.118 0 0 0-5.682-9.723 7.484 7.484 0 0 1-9.583 0 11.119 11.119 0 0 0-5.682 9.728c-.683-.005-1.017-.009-1.028-.015zm5-15.483a6.5 6.5 0 1 0 6.5-6.5 6.508 6.508 0 0 0-6.5 6.496z" transform="translate(-2328 -7419)"/>
    </g>
</svg>
