<svg xmlns="http://www.w3.org/2000/svg" width="15.783" height="15.849" viewBox="0 0 15.783 15.849">
    <defs>
        <style>
            .cls-1{fill:#646363;stroke:rgba(0,0,0,0)}
        </style>
    </defs>
    <path id="Tracé_899" d="M2713.229 7543.466c-.2.018-.393.03-.593.03a6.794 6.794 0 1 1 5.012-11.376l-.609.618a5.925 5.925 0 0 0-8.956 7.755l1-4.885a1.658 1.658 0 0 1 1.8-1.37 25.25 25.25 0 0 1 3.407 1.973.253.253 0 0 1 .1.359.266.266 0 0 1-.349.1l-2.06-.828c-.366-.155-.959.011-.871 1.049l.645 5.5.028.181a5.927 5.927 0 0 0 .848.063c.183 0 .364-.012.543-.028l-.053-.717 1.391 1.061-1.242 1.2zm-3.618-4.467l-.8 2.229a5.922 5.922 0 0 0 2.174 1.167l-.97-3.4c-.066-.246-.185-.22-.185-.22h-.005c-.025-.003-.136.008-.214.225zm5.526 3.712l-.338-.189a3.045 3.045 0 0 1-1.347-1.906 3.214 3.214 0 0 1 .954-3.143 2.287 2.287 0 0 0 .563 2.8 2.81 2.81 0 0 0 1.144.721l.305-.587.884 2.415-2.5.508zm4.067-3.015l-.329.178a3.038 3.038 0 0 1-2.33.122 3.213 3.213 0 0 1-2.15-2.483 2.288 2.288 0 0 0 2.667 1.017 2.822 2.822 0 0 0 1.214-.578v-.006l-.334-.578 2.512.549-.91 2.38zm-4.775-2.2a2.288 2.288 0 0 0 2.3-1.694 2.817 2.817 0 0 0 .168-1.338h-.009l-.667-.03 1.815-1.823 1.516 2.048-.684-.039-.029.379a3.037 3.037 0 0 1-1.156 2.028 12.242 12.242 0 0 1-2.028.722 5.367 5.367 0 0 1-1.226-.249zm-4.25-4.581a1.037 1.037 0 1 1 1.037 1.037 1.038 1.038 0 0 1-1.037-1.033z" class="cls-1" data-name="Tracé 899" transform="translate(-2705.341 -7529.408)"/>
</svg>
