<svg xmlns="http://www.w3.org/2000/svg" width="12.488" height="13.683" viewBox="0 0 12.488 13.683">
    <defs>
        <style>
            .cls-1{fill:#dec480}
        </style>
    </defs>
    <path id="Tracé_821" d="M7.179-22.852q-1.443 0-1.649 1.072a1.355 1.355 0 0 0-.041.33 15.358 15.358 0 0 0 .742 2.679q.33 1.154.495 2.061-.495-.412-2.349-2.432a3.456 3.456 0 0 0-1.813-1.236 1.538 1.538 0 0 0-1.443 1.2 2.025 2.025 0 0 0-.165.742 1.339 1.339 0 0 0 .659 1.154 22.44 22.44 0 0 0 2.8.7q1.115.282 1.985.572a34.821 34.821 0 0 1-3.544.907 6.325 6.325 0 0 0-1.278.412 1.351 1.351 0 0 0-.664 1.071 1.941 1.941 0 0 0 .907 1.69 1.389 1.389 0 0 0 .783.247q.742 0 2.184-1.649a17.934 17.934 0 0 1 1.937-2.02q-.124.7-.989 3.544a4.815 4.815 0 0 0-.247 1.278 1.729 1.729 0 0 0 1.649 1.36q1.443 0 1.649-1.072a1.773 1.773 0 0 0 .041-.33 16 16 0 0 0-.742-2.72 16.46 16.46 0 0 1-.536-2.061q.412.33 2.267 2.349 1.236 1.319 1.937 1.36a1.538 1.538 0 0 0 1.443-1.2 2.025 2.025 0 0 0 .165-.742 1.339 1.339 0 0 0-.659-1.154 22.207 22.207 0 0 0-2.761-.7q-1.154-.288-1.978-.577.412-.165 3.5-.865a8.222 8.222 0 0 0 1.236-.453 1.334 1.334 0 0 0 .7-1.072 2.008 2.008 0 0 0-.907-1.69 1.53 1.53 0 0 0-.783-.247q-.783 0-2.143 1.607a19.487 19.487 0 0 1-2.019 2.1q.124-.618 1.03-3.544a5.258 5.258 0 0 0 .247-1.319q0-1.154-1.319-1.319a1.355 1.355 0 0 0-.327-.033z" class="cls-1" data-name="Tracé 821" transform="translate(-.914 22.852)"/>
</svg>
