<svg xmlns="http://www.w3.org/2000/svg" width="40.001" height="40.001" viewBox="0 0 40.001 40.001">
    <defs>
        <style>
            .cls-1{fill:none}.cls-2{clip-path:url(#clip-path)}.cls-3{fill:#154331}
        </style>
        <clipPath id="clip-path">
            <path d="M0 0h40.001v40.001H0z" class="cls-1"/>
        </clipPath>
    </defs>
    <g id="Composant_3" class="cls-2" data-name="Composant 3">
        <path id="Union_3" d="M3695.756 12203.383a14.712 14.712 0 0 1-4.857-.928 9.919 9.919 0 0 1-3.54-2.31 9.738 9.738 0 0 1-2.309-3.543 14.793 14.793 0 0 1-.928-4.857c-.095-2.135-.119-2.818-.119-8.248s.024-6.11.119-8.239a14.7 14.7 0 0 1 .928-4.856 9.927 9.927 0 0 1 2.309-3.541 9.726 9.726 0 0 1 3.54-2.31 14.618 14.618 0 0 1 4.848-.931c2.135-.095 2.818-.119 8.248-.119s6.11.024 8.254.113a14.635 14.635 0 0 1 4.857.928 9.872 9.872 0 0 1 3.537 2.31 9.76 9.76 0 0 1 2.312 3.54 14.809 14.809 0 0 1 .928 4.857c.095 2.138.119 2.812.119 8.248s-.024 6.113-.119 8.248a14.713 14.713 0 0 1-.928 4.857 9.943 9.943 0 0 1-2.312 3.543 9.717 9.717 0 0 1-3.537 2.31 14.811 14.811 0 0 1-4.857.928c-2.135.095-2.812.119-8.248.119s-6.111-.024-8.245-.119zm.159-36.158a11.175 11.175 0 0 0-3.715.689 6.578 6.578 0 0 0-3.795 3.795 10.954 10.954 0 0 0-.689 3.715c-.095 2.113-.119 2.741-.119 8.082s.025 5.97.119 8.079a11.09 11.09 0 0 0 .689 3.716 6.127 6.127 0 0 0 1.491 2.3 6.278 6.278 0 0 0 2.3 1.5 11.028 11.028 0 0 0 3.715.688c2.11.095 2.738.119 8.079.119s5.966-.024 8.079-.119a11.157 11.157 0 0 0 3.712-.688 6.13 6.13 0 0 0 2.3-1.5 6.2 6.2 0 0 0 1.492-2.3 10.913 10.913 0 0 0 .692-3.716c.095-2.109.119-2.737.119-8.079s-.024-5.969-.119-8.082a11.168 11.168 0 0 0-.692-3.715 6.094 6.094 0 0 0-1.492-2.3 6.236 6.236 0 0 0-2.3-1.494 11 11 0 0 0-3.712-.689c-2.113-.095-2.738-.119-8.079-.119s-5.965.014-8.075.118zm-2.037 16.281a10.115 10.115 0 1 1 10.116 10.119 10.119 10.119 0 0 1-10.116-10.119zm3.55-.006a6.565 6.565 0 1 0 6.566-6.569 6.567 6.567 0 0 0-6.566 6.569zm15.365-8.809a2.44 2.44 0 1 1 1.723.712 2.436 2.436 0 0 1-1.723-.712z" class="cls-3" data-name="Union 3" transform="translate(-3684.001 -12163.501)"/>
    </g>
</svg>
