<svg xmlns="http://www.w3.org/2000/svg" width="72.018" height="70.635" viewBox="0 0 72.018 70.635">
    <defs>
        <style>
            .cls-1{fill:none}.cls-2{clip-path:url(#clip-path)}.cls-3{fill:#6d9b8d}
        </style>
        <clipPath id="clip-path">
            <path d="M0 0h72.018v70.635H0z" class="cls-1"/>
        </clipPath>
    </defs>
    <g id="Composant_21" class="cls-2" data-name="Composant 21">
        <path id="Tracé_869" d="M252.188 263.379c4.173-5.006 4.244-11.709 4.245-11.992v-.6l-.594.111a22.109 22.109 0 0 0-6.851 2.765 18.005 18.005 0 0 0 3.059-6.653c1.37-6.372-1.682-12.341-1.813-12.592l-.279-.536-.474.374A22.121 22.121 0 0 0 245 239.4a17.589 17.589 0 0 0-.49-6.4c-1.748-6.278-7.225-10.145-7.457-10.306l-.5-.345-.246.551c-.115.259-2.805 6.4-1.057 12.678 1.6 5.735 6.293 9.448 7.273 10.173a21.061 21.061 0 0 0 1.947 11.824l.027.052a20.869 20.869 0 0 0-3.93 11.386 21.072 21.072 0 0 0-8.624 8.319l-.077.145a20.879 20.879 0 0 0-11.439 3.122 20.843 20.843 0 0 0-11.441-3.122l-.076-.145a21.083 21.083 0 0 0-8.625-8.32 20.869 20.869 0 0 0-3.929-11.385l.027-.052a21.061 21.061 0 0 0 1.947-11.824c.98-.725 5.676-4.438 7.272-10.173 1.749-6.279-.941-12.419-1.056-12.678l-.246-.551-.5.345c-.232.161-5.709 4.028-7.457 10.306a17.591 17.591 0 0 0-.49 6.4 22.12 22.12 0 0 0-4.487-5.152l-.474-.374-.279.536c-.131.251-3.183 6.22-1.813 12.592a18.037 18.037 0 0 0 3.059 6.653 22.1 22.1 0 0 0-6.852-2.765l-.594-.111v.6c0 .283.073 6.986 4.247 11.992a17.6 17.6 0 0 0 5.036 4.067 22.088 22.088 0 0 0-6.837.764l-.577.178.283.534c.132.25 3.31 6.153 9.332 8.646a17.868 17.868 0 0 0 6.826 1.27c.239 0 .463-.011.693-.018a22.155 22.155 0 0 0-6.413 4.169l-.428.426.5.341a21.25 21.25 0 0 0 10.878 3.382c.461 0 .93-.02 1.4-.063a19.345 19.345 0 0 0 9.162-3.6l-5.534 8.987.852.525 6.647-10.8 6.648 10.8.852-.525-5.441-8.835a19.238 19.238 0 0 0 8.947 3.447c.473.043.941.063 1.4.063a21.255 21.255 0 0 0 10.878-3.382l.5-.341-.428-.426a22.155 22.155 0 0 0-6.413-4.169c.23.007.454.018.693.018a17.887 17.887 0 0 0 6.826-1.27c6.022-2.493 9.2-8.4 9.332-8.646l.283-.534-.577-.178a22.1 22.1 0 0 0-6.838-.763 17.627 17.627 0 0 0 5.046-4.059zm-15.975-28.066c-1.347-4.838.161-9.74.773-11.406 1.385 1.11 5.209 4.527 6.557 9.366a18.382 18.382 0 0 1-.085 9.132 16.122 16.122 0 0 0-.717 2.251c-1.406-1.129-5.186-4.525-6.528-9.343zm7.409 9.951a21.62 21.62 0 0 0 .824-2.637 21.185 21.185 0 0 1 5.173-7.172c.711 1.624 2.51 6.421 1.453 11.341s-4.67 8.552-5.985 9.742c-.708-1.617-2.487-6.378-1.465-11.274zm-46.312-11.991c1.348-4.839 5.172-8.256 6.557-9.366.612 1.666 2.119 6.568.772 11.406-1.339 4.81-5.121 8.211-6.527 9.343a16.108 16.108 0 0 0-.717-2.25 18.386 18.386 0 0 1-.085-9.133zm-6.075 2.182a21.148 21.148 0 0 1 5.171 7.167 21.791 21.791 0 0 0 .825 2.642c1.026 4.888-.758 9.655-1.465 11.274-1.316-1.191-4.93-4.831-5.985-9.742s.743-9.715 1.454-11.341zm-1.8 27.284c-3.218-3.859-3.857-8.947-3.984-10.717 1.719.443 6.61 1.987 9.827 5.845s3.853 8.927 3.981 10.706a16 16 0 0 0-2.1-.655 18.476 18.476 0 0 1-7.725-5.179zm6.852 13.9c-4.642-1.922-7.573-6.131-8.508-7.64a21.07 21.07 0 0 1 9.039-.135 21.617 21.617 0 0 0 2.276.707c.034.014.068.024.1.038 4.641 1.922 7.572 6.131 8.507 7.639-1.727.412-6.774 1.317-11.415-.604zm12.984 9.435c-5.005.455-9.555-1.91-11.083-2.811 1.338-1.163 5.381-4.31 10.393-4.766s9.553 1.909 11.082 2.811c-1.342 1.168-5.391 4.316-10.393 4.771zm22.313 0c-5-.455-9.053-3.6-10.393-4.766 1.527-.9 6.07-3.267 11.083-2.811s9.053 3.6 10.393 4.767c-1.527.906-6.075 3.273-11.084 2.815zM253.076 269c-.932 1.508-3.858 5.714-8.508 7.639s-9.689 1.016-11.416.609c.934-1.508 3.865-5.717 8.507-7.639.034-.014.069-.025.1-.038a21.634 21.634 0 0 0 2.267-.7 21.133 21.133 0 0 1 9.049.134zm-9.385-1.086a16.041 16.041 0 0 0-2.1.654c.129-1.779.771-6.855 3.982-10.706s8.109-5.4 9.827-5.845c-.125 1.768-.76 6.852-3.983 10.717a18.491 18.491 0 0 1-7.727 5.185z" class="cls-3" data-name="Tracé 869" transform="translate(-184.417 -222.353)"/>
    </g>
</svg>
