<svg xmlns="http://www.w3.org/2000/svg" width="8.412" height="12.372" viewBox="0 0 8.412 12.372">
    <defs>
        <style>
            .cls-1{fill:none}.cls-2{clip-path:url(#clip-path)}.cls-3{fill:#646363}
        </style>
        <clipPath id="clip-path">
            <path d="M0 0h8.412v12.372H0z" class="cls-1"/>
        </clipPath>
    </defs>
    <g id="phone_icon" class="cls-2" data-name="phone icon">
        <path id="Tracé_1035" d="M2621.7 7370.754a.31.31 0 0 1-.228-.1 13.388 13.388 0 0 1-4-10.3.31.31 0 0 1 .113-.217l2.029-1.62a.281.281 0 0 1 .2-.078h.039a.318.318 0 0 1 .316.292l.292 2.61a.342.342 0 0 1-.154.318l-.557.355a.336.336 0 0 0-.126.4 7.977 7.977 0 0 0 .912 2.939 10.343 10.343 0 0 0 1.369 2.612.323.323 0 0 0 .392.191l.47-.141a.327.327 0 0 1 .355.127l1.547 2.155a.32.32 0 0 1-.065.442.339.339 0 0 1-.2.065zm3.537-.8l-1.5-1.94a.325.325 0 0 1 .14-.507l.113-.05a.319.319 0 0 1 .381.113l1.406 1.965a.329.329 0 0 1-.037.431l-.026.026a.339.339 0 0 1-.227.086.312.312 0 0 1-.253-.121zm-4.146-8.95l-.24-2.205a.327.327 0 0 1 .355-.355l.139.013a.325.325 0 0 1 .292.305l.152 2.166a.321.321 0 0 1-.24.342l-.05.013a.334.334 0 0 1-.084.011.326.326 0 0 1-.326-.287z" class="cls-3" data-name="Tracé 1035" transform="translate(-2617.43 -7358.434)"/>
    </g>
</svg>
