<svg xmlns="http://www.w3.org/2000/svg" width="84.958" height="26.818" viewBox="0 0 84.958 26.818">
    <defs>
        <style>
            .cls-1{fill:none}.cls-2{opacity:.6;clip-path:url(#clip-path)}.cls-3{fill:#646363;stroke:rgba(0,0,0,0)}
        </style>
        <clipPath id="clip-path">
            <path d="M0 0h84.958v26.818H0z" class="cls-1"/>
        </clipPath>
    </defs>
    <g id="Composant_3" class="cls-2" data-name="Composant 3">
        <path id="Tracé_1027" d="M2527.9 7362.809a12.915 12.915 0 1 1 .014 0zm-12.124-12.922a12.114 12.114 0 1 0 12.131-12.1 12.086 12.086 0 0 0-12.135 12.1zm8.616 5.472l-.5-.514.558-.579.514.514a3.692 3.692 0 0 0 2.641 1.092h.005a3.729 3.729 0 0 0 2.622-6.37l-.972-.974.551-.551.981.983.022.022a4.509 4.509 0 0 1-.022 6.375l-.013.011a4.515 4.515 0 0 1-6.386-.011zm7.676-.074a.6.6 0 1 1 .6.6.6.6 0 0 1-.604-.6zm-5.483-.735a2.575 2.575 0 0 1-.843-.565l-.5-.493.558-.562.514.5a1.814 1.814 0 0 0 2.951-1.981 1.861 1.861 0 0 0-.394-.589l-.971-.968-.557.558-.983-.978a2.6 2.6 0 0 1 3.677-3.674l.416.412-.558.558-.414-.412a.337.337 0 0 1-.028-.026 1.8 1.8 0 0 0-2.544.026 1.759 1.759 0 0 0-.394.577 1.81 1.81 0 0 0 0 1.39 1.757 1.757 0 0 0 .394.587l.979.981h.011l-.011-.011.54-.551.983.979a2.6 2.6 0 0 1 0 3.673 2.6 2.6 0 0 1-2.829.565zm58.345-.852a2.578 2.578 0 0 1-1.913-.835 3.129 3.129 0 0 1 0-4.209 2.569 2.569 0 0 1 1.905-.839 2.776 2.776 0 0 1 1.844.6v-.438h1.469v5.553h-1.469v-.434a2.846 2.846 0 0 1-1.75.6zm-.861-4.15a1.68 1.68 0 0 0-.44 1.214 1.652 1.652 0 0 0 .44 1.207 1.492 1.492 0 0 0 1.118.449 1.551 1.551 0 0 0 1.1-.46 1.741 1.741 0 0 0 0-2.4 1.543 1.543 0 0 0-1.1-.467h-.046a1.488 1.488 0 0 0-1.075.456zm-36.439 2.883l.918-1.09a3.654 3.654 0 0 0 2.439.972c.8 0 1.208-.368 1.208-.833 0-.514-.432-.689-1.565-.948-1.565-.358-2.676-.8-2.676-2.236 0-1.369 1.122-2.313 2.74-2.313a4.287 4.287 0 0 1 2.9 1.029l-.832 1.149a3.427 3.427 0 0 0-2.116-.82c-.68 0-1.09.354-1.09.8 0 .54.442.713 1.585.972 1.6.355 2.657.832 2.657 2.2 0 1.416-1.07 2.354-2.883 2.354h-.094a4.773 4.773 0 0 1-3.194-1.237zm9.986 1.229a2.035 2.035 0 0 1-2.073-2.156v-3.552h1.523v3.217a1.063 1.063 0 0 0 1.057 1.164 1.11 1.11 0 0 0 1.164-1.055v-3.334l1.585.007v5.581h-1.572v-.7a1.99 1.99 0 0 1-1.618.831zm12.223 0a2.035 2.035 0 0 1-2.073-2.156v-3.552h1.523v3.217a1.063 1.063 0 0 0 1.057 1.164 1.111 1.111 0 0 0 1.164-1.055v-3.333l1.587.007v5.581h-1.574v-.7a1.994 1.994 0 0 1-1.617.831zm-6.562-1.562a1.2 1.2 0 0 1 0-.142v-2.731h-.772v-1.286h.772v-1.539h1.512v1.543H2566v1.286h-1.208v2.483a.569.569 0 0 0 .514.623.038.038 0 0 0 .017 0 .788.788 0 0 0 .536-.183l.381 1.024a2 2 0 0 1-1.284.486h-.058a1.62 1.62 0 0 1-1.624-1.562zm34.172 1.443v-3.291a1.038 1.038 0 0 0-2.07-.167.53.53 0 0 0 0 .08v3.378h-1.51v-3.291a1.033 1.033 0 0 0-2.059-.177v3.459h-1.576v-5.581h1.576v.723a1.641 1.641 0 0 1 1.511-.865 1.986 1.986 0 0 1 1.77 1.016 1.945 1.945 0 0 1 1.813-1.016 2.072 2.072 0 0 1 2.062 2.171v3.561zm-18.495-.009v-3.217a1.062 1.062 0 0 0-1.057-1.166 1.107 1.107 0 0 0-1.164 1.049v.019l-.013-.031v3.342h-1.574v-5.577h1.574v.7a1.983 1.983 0 0 1 1.683-.833 2.039 2.039 0 0 1 2.073 2.16v3.551zm-53.969-2.7a4.526 4.526 0 0 1 4.934-7.38 4.494 4.494 0 0 1 1.473.983l.394.4-.558.556-.4-.4a3.734 3.734 0 0 0-5.281 0l-.013.011a3.725 3.725 0 0 0 .013 5.27l.987.976-.567.565zm4.267-2.306l.007.007-.007.007z" class="cls-3" data-name="Tracé 1027" transform="translate(-2514.5 -7336.491)"/>
    </g>
</svg>
